<svg width="780" height="695" viewBox="0 0 780 695" fill="none" xmlns="http://www.w3.org/2000/svg">
<g id="BAROMETER">
<g id="progress_bar">
<g id="Ellipse 78">
<mask id="path-1-inside-1_111_1827" fill="white">
<path d="M668.491 396.332C676.979 396.589 684.108 389.914 683.94 381.424C683.229 345.447 676.207 309.832 663.156 276.213C648.247 237.811 625.775 202.796 597.072 173.247C568.369 143.698 534.022 120.217 496.07 104.199C458.117 88.1809 417.333 79.9518 376.138 80.0002C334.944 80.0487 294.179 88.3738 256.264 104.481C218.349 120.589 184.058 144.15 155.425 173.767C126.792 203.383 104.401 238.451 89.5832 276.888C76.6107 310.538 69.6729 346.169 69.0466 382.147C68.8988 390.637 76.0433 397.296 84.5301 397.019V397.019C93.017 396.743 99.628 389.634 99.823 381.145C100.555 349.287 106.784 317.754 118.275 287.949C131.611 253.356 151.763 221.795 177.532 195.14C203.302 168.485 234.165 147.28 268.288 132.783C302.411 118.286 339.099 110.794 376.175 110.75C413.25 110.707 449.955 118.113 484.113 132.529C518.27 146.946 549.183 168.078 575.015 194.673C600.847 221.267 621.073 252.78 634.49 287.342C646.051 317.12 652.355 348.638 653.161 380.494C653.376 388.983 660.004 396.076 668.491 396.332V396.332Z"/>
</mask>
<path d="M668.491 396.332C676.979 396.589 684.108 389.914 683.94 381.424C683.229 345.447 676.207 309.832 663.156 276.213C648.247 237.811 625.775 202.796 597.072 173.247C568.369 143.698 534.022 120.217 496.07 104.199C458.117 88.1809 417.333 79.9518 376.138 80.0002C334.944 80.0487 294.179 88.3738 256.264 104.481C218.349 120.589 184.058 144.15 155.425 173.767C126.792 203.383 104.401 238.451 89.5832 276.888C76.6107 310.538 69.6729 346.169 69.0466 382.147C68.8988 390.637 76.0433 397.296 84.5301 397.019V397.019C93.017 396.743 99.628 389.634 99.823 381.145C100.555 349.287 106.784 317.754 118.275 287.949C131.611 253.356 151.763 221.795 177.532 195.14C203.302 168.485 234.165 147.28 268.288 132.783C302.411 118.286 339.099 110.794 376.175 110.75C413.25 110.707 449.955 118.113 484.113 132.529C518.27 146.946 549.183 168.078 575.015 194.673C600.847 221.267 621.073 252.78 634.49 287.342C646.051 317.12 652.355 348.638 653.161 380.494C653.376 388.983 660.004 396.076 668.491 396.332V396.332Z" stroke="white" stroke-width="2" mask="url(#path-1-inside-1_111_1827)"/>
</g>
<path id="Vector 632" d="M376 80.5V110" stroke="black"/>
</g>
<g id="ticks">
<path id="100" d="M729 385V389L689 388V386L729 385Z" fill="#1088C3"/>
<path id="99" d="M716.81 375.273L716.873 377.272L688.89 377.652L688.859 376.652L716.81 375.273Z" fill="#1088C3"/>
<path id="98" d="M716.303 364.557L716.429 366.553L688.458 367.811L688.396 366.813L716.303 364.557Z" fill="#1088C3"/>
<path id="97" d="M715.461 353.86L715.649 355.851L687.737 357.987L687.643 356.992L715.461 353.86Z" fill="#1088C3"/>
<path id="96" d="M714.288 343.193L714.539 345.177L686.684 348.192L686.558 347.2L714.288 343.193Z" fill="#1088C3"/>
<path id="95" d="M719.606 331.139L720.076 334.102L685.434 339.082L685.121 337.107L719.606 331.139Z" fill="#1088C3"/>
<path id="94" d="M710.941 321.993L711.315 323.958L683.659 328.724L683.472 327.742L710.941 321.993Z" fill="#1088C3"/>
<path id="93" d="M708.77 311.481L709.207 313.432L681.704 319.068L681.486 318.092L708.77 311.481Z" fill="#1088C3"/>
<path id="92" d="M706.278 301.038L706.775 302.975L679.445 309.476L679.196 308.508L706.278 301.038Z" fill="#1088C3"/>
<path id="91" d="M703.454 290.679L704.012 292.6L676.866 299.966L676.587 299.005L703.454 290.679Z" fill="#1088C3"/>
<path id="90" d="M711.341 276.101L712.577 279.905L674.25 291.307L673.631 289.404L711.341 276.101Z" fill="#1088C3"/>
<path id="89" d="M696.818 270.256L697.495 272.137L670.825 281.208L670.486 280.267L696.818 270.256Z" fill="#1088C3"/>
<path id="88" d="M693.032 260.205L693.769 262.064L667.349 271.987L666.981 271.057L693.032 260.205Z" fill="#1088C3"/>
<path id="87" d="M688.905 250.288L689.699 252.124L663.605 262.871L663.208 261.953L688.905 250.288Z" fill="#1088C3"/>
<path id="86" d="M684.484 240.498L685.335 242.308L659.55 253.889L659.125 252.984L684.484 240.498Z" fill="#1088C3"/>
<path id="85" d="M685.692 227.775L687.054 230.448L655.679 245.874L654.771 244.091L685.692 227.775Z" fill="#1088C3"/>
<path id="84" d="M674.744 221.348L675.708 223.101L650.618 236.323L650.136 235.447L674.744 221.348Z" fill="#1088C3"/>
<path id="83" d="M669.419 212.015L670.437 213.737L645.738 227.763L645.229 226.902L669.419 212.015Z" fill="#1088C3"/>
<path id="82" d="M663.794 202.859L664.865 204.548L640.603 219.353L640.067 218.509L663.794 202.859Z" fill="#1088C3"/>
<path id="81" d="M657.898 193.873L659.022 195.528L635.182 211.124L634.62 210.297L657.898 193.873Z" fill="#1088C3"/>
<path id="80" d="M660.754 178.005L663.105 181.241L630.16 203.941L628.984 202.323L660.754 178.005Z" fill="#1088C3"/>
<path id="79" d="M645.268 176.481L646.494 178.061L623.616 195.174L623.004 194.384L645.268 176.481Z" fill="#1088C3"/>
<path id="78" d="M638.554 168.085L639.829 169.626L617.457 187.485L616.82 186.714L638.554 168.085Z" fill="#1088C3"/>
<path id="77" d="M631.574 159.907L632.897 161.407L611.065 179.988L610.404 179.238L631.574 159.907Z" fill="#1088C3"/>
<path id="75" d="M621.398 139.981L623.519 142.103L598.431 166.484L597.017 165.069L621.398 139.981Z" fill="#1088C3"/>
<path id="76" d="M624.339 151.953L625.708 153.411L604.437 172.699L603.753 171.97L624.339 151.953Z" fill="#1088C3"/>
<path id="74" d="M609.15 136.727L610.608 138.096L590.509 158.77L589.78 158.085L609.15 136.727Z" fill="#1088C3"/>
<path id="73" d="M601.211 129.469L602.711 130.791L583.233 152.128L582.483 151.467L601.211 129.469Z" fill="#1088C3"/>
<path id="72" d="M593.036 122.476L594.577 123.75L575.742 145.734L574.971 145.096L593.036 122.476Z" fill="#1088C3"/>
<path id="71" d="M584.649 117.735L586.229 118.961L568.055 141.576L567.264 140.963L584.649 117.735Z" fill="#1088C3"/>
<path id="70" d="M582.324 100.305L585.56 102.656L561.244 134.423L559.626 133.247L582.324 100.305Z" fill="#1088C3"/>
<path id="69" d="M567.259 103.056L568.913 104.18L552.133 127.982L551.306 127.42L567.259 103.056Z" fill="#1088C3"/>
<path id="68" d="M558.267 97.139L559.956 98.2107L543.905 122.57L543.06 122.034L558.267 97.139Z" fill="#1088C3"/>
<path id="67" d="M549.1 91.4931L550.822 92.5112L535.511 117.418L534.65 116.909L549.1 91.4931Z" fill="#1088C3"/>
<path id="66" d="M539.756 86.1439L541.508 87.1074L526.962 112.53L526.085 112.048L539.756 86.1439Z" fill="#1088C3"/>
<path id="65" d="M533.155 76.2425L535.828 77.6045L519.497 108.555L517.715 107.647L533.155 76.2425Z" fill="#1088C3"/>
<path id="64" d="M520.572 76.3579L522.381 77.2095L509.413 103.594L508.509 103.168L520.572 76.3579Z" fill="#1088C3"/>
<path id="63" d="M510.756 71.9249L512.591 72.7192L500.44 99.5392L499.523 99.1421L510.756 71.9249Z" fill="#1088C3"/>
<path id="62" d="M500.806 67.7957L502.666 68.532L491.343 95.7736L490.413 95.4055L500.806 67.7957Z" fill="#1088C3"/>
<path id="61" d="M490.726 63.9956L492.608 64.6731L482.131 92.2985L481.19 91.9598L490.726 63.9956Z" fill="#1088C3"/>
<path id="60" d="M483.691 50.6277L487.495 51.8638L474.192 89.5703L472.29 88.9522L483.691 50.6277Z" fill="#1088C3"/>
<path id="59" d="M470.228 57.3595L472.149 57.9175L463.401 86.2349L462.441 85.956L470.228 57.3595Z" fill="#1088C3"/>
<path id="58" d="M459.831 54.5297L461.769 55.0271L453.901 83.6576L452.933 83.4089L459.831 54.5297Z" fill="#1088C3"/>
<path id="57" d="M449.351 52.0256L451.303 52.4619L444.327 81.376L443.351 81.1578L449.351 52.0256Z" fill="#1088C3"/>
<path id="56" d="M438.793 49.8726L440.757 50.2473L434.687 79.4019L433.704 79.2146L438.793 49.8726Z" fill="#1088C3"/>
<path id="55" d="M429.462 43.0224L432.425 43.4917L426.457 77.972L424.482 77.6591L429.462 43.0224Z" fill="#1088C3"/>
<path id="54" d="M417.499 46.5684L419.483 46.8191L415.244 76.382L414.252 76.2567L417.499 46.5684Z" fill="#1088C3"/>
<path id="53" d="M406.785 45.4173L408.776 45.6055L405.464 75.3237L404.469 75.2296L406.785 45.4173Z" fill="#1088C3"/>
<path id="52" d="M396.039 44.6171L398.035 44.7427L395.656 74.5821L394.658 74.5193L396.039 44.6171Z" fill="#1088C3"/>
<path id="51" d="M385.274 44.1408L387.273 44.2036L385.832 74.1398L384.832 74.1084L385.274 44.1408Z" fill="#1088C3"/>
<path id="50" d="M374.5 34H378.5L377.5 75H375.5L374.5 34Z" fill="#1088C3"/>
<path id="49" d="M363.727 44.2008L365.726 44.1379L366.169 74.16L365.17 74.1914L363.727 44.2008Z" fill="#1088C3"/>
<path id="48" d="M352.965 44.7367L354.961 44.6111L356.349 74.6423L355.351 74.7051L352.965 44.7367Z" fill="#1088C3"/>
<path id="47" d="M342.225 45.6113L344.216 45.4231L346.548 75.4122L345.553 75.5063L342.225 45.6113Z" fill="#1088C3"/>
<path id="46" d="M331.52 46.8422L333.504 46.5916L336.778 76.4945L335.786 76.6198L331.52 46.8422Z" fill="#1088C3"/>
<path id="45" d="M320.575 43.4886L323.538 43.0193L328.517 77.6548L326.542 77.9677L320.575 43.4886Z" fill="#1088C3"/>
<path id="44" d="M310.243 50.249L312.208 49.8743L317.364 79.5696L316.381 79.757L310.243 50.249Z" fill="#1088C3"/>
<path id="43" d="M299.701 52.4805L301.653 52.0442L307.743 81.5794L306.767 81.7976L299.701 52.4805Z" fill="#1088C3"/>
<path id="42" d="M289.232 55.0281L291.169 54.5308L298.192 83.8955L297.224 84.1442L289.232 55.0281Z" fill="#1088C3"/>
<path id="41" d="M278.852 57.9193L280.772 57.3613L288.715 86.4909L287.754 86.7699L278.852 57.9193Z" fill="#1088C3"/>
<path id="40" d="M265.496 51.8349L269.3 50.5989L280.706 88.9397L278.804 89.5577L265.496 51.8349Z" fill="#1088C3"/>
<path id="39" d="M258.392 64.6702L260.273 63.9927L270.036 92.5857L269.095 92.9244L258.392 64.6702Z" fill="#1088C3"/>
<path id="38" d="M248.339 68.5429L250.198 67.8066L260.857 96.0847L259.927 96.4528L248.339 68.5429Z" fill="#1088C3"/>
<path id="37" d="M238.405 72.7106L240.241 71.9163L251.794 99.8737L250.876 100.271L238.405 72.7106Z" fill="#1088C3"/>
<path id="36" d="M228.624 77.2205L230.434 76.3689L242.856 103.943L241.952 104.369L228.624 77.2205Z" fill="#1088C3"/>
<path id="35" d="M217.173 77.6076L219.846 76.2456L235.289 107.656L233.507 108.564L217.173 77.6076Z" fill="#1088C3"/>
<path id="34" d="M209.503 87.1278L211.255 86.1643L225.387 112.907L224.51 113.389L209.503 87.1278Z" fill="#1088C3"/>
<path id="33" d="M200.188 92.5281L201.91 91.51L216.869 117.788L216.009 118.297L200.188 92.5281Z" fill="#1088C3"/>
<path id="32" d="M191.045 98.2113L192.733 97.1396L208.522 122.951L207.677 123.487L191.045 98.2113Z" fill="#1088C3"/>
<path id="31" d="M182.103 104.204L183.757 103.08L200.326 128.349L199.498 128.911L182.103 104.204Z" fill="#1088C3"/>
<path id="30" d="M167.469 102.695L170.705 100.344L193.366 133.236L191.748 134.412L167.469 102.695Z" fill="#1088C3"/>
<path id="29" d="M164.804 117.004L166.384 115.778L184.474 139.915L183.684 140.528L164.804 117.004Z" fill="#1088C3"/>
<path id="28" d="M156.416 123.742L157.957 122.467L176.832 146.067L176.061 146.704L156.416 123.742Z" fill="#1088C3"/>
<path id="27" d="M148.287 130.789L149.787 129.467L169.389 152.457L168.639 153.118L148.287 130.789Z" fill="#1088C3"/>
<path id="26" d="M140.395 138.099L141.853 136.729L162.166 159.092L161.437 159.776L140.395 138.099Z" fill="#1088C3"/>
<path id="25" d="M129.475 142.097L131.597 139.976L155.977 165.063L154.563 166.478L129.475 142.097Z" fill="#1088C3"/>
<path id="24" d="M125.298 153.417L126.667 151.959L148.322 172.98L147.637 173.709L125.298 153.417Z" fill="#1088C3"/>
<path id="23" d="M118.093 161.399L119.416 159.899L141.732 180.24L141.071 180.99L118.093 161.399Z" fill="#1088C3"/>
<path id="22" d="M111.175 169.629L112.45 168.088L135.372 187.7L134.735 188.47L111.175 169.629Z" fill="#1088C3"/>
<path id="21" d="M104.498 178.055L105.724 176.474L129.673 195.684L129.06 196.475L104.498 178.055Z" fill="#1088C3"/>
<path id="20" d="M89.9037 181.248L92.2549 178.012L124.012 202.321L122.837 203.939L89.9037 181.248Z" fill="#1088C3"/>
<path id="19" d="M91.9833 195.531L93.1074 193.877L117.737 211.22L117.175 212.047L91.9833 195.531Z" fill="#1088C3"/>
<path id="18" d="M86.1232 204.54L87.1948 202.852L112.371 219.421L111.835 220.265L86.1232 204.54Z" fill="#1088C3"/>
<path id="17" d="M80.5649 213.738L81.583 212.016L107.249 227.776L106.74 228.637L80.5649 213.738Z" fill="#1088C3"/>
<path id="16" d="M75.2928 223.101L76.2563 221.348L102.401 236.292L101.919 237.168L75.2928 223.101Z" fill="#1088C3"/>
<path id="15" d="M65.932 230.441L67.2939 227.768L98.2471 244.101L97.3391 245.883L65.932 230.441Z" fill="#1088C3"/>
<path id="14" d="M65.6514 242.302L66.5029 240.492L93.5099 253.753L93.0841 254.658L65.6514 242.302Z" fill="#1088C3"/>
<path id="13" d="M61.3009 252.124L62.0952 250.288L89.4843 262.685L89.0872 263.603L61.3009 252.124Z" fill="#1088C3"/>
<path id="12" d="M57.2462 262.07L57.9824 260.21L85.7336 271.736L85.3654 272.665L57.2462 262.07Z" fill="#1088C3"/>
<path id="11" d="M53.5159 272.141L54.1934 270.26L82.2916 280.907L81.9529 281.848L53.5159 272.141Z" fill="#1088C3"/>
<path id="10" d="M40.4197 279.904L41.6558 276.1L79.3542 289.4L78.7361 291.302L40.4197 279.904Z" fill="#1088C3"/>
<path id="9" d="M46.9884 292.6L47.5464 290.679L76.2582 299.541L75.9792 300.502L46.9884 292.6Z" fill="#1088C3"/>
<path id="8" d="M44.2263 302.976L44.7236 301.039L73.6871 308.991L73.4384 309.96L44.2263 302.976Z" fill="#1088C3"/>
<path id="7" d="M41.7903 313.432L42.2266 311.48L71.4085 318.515L71.1904 319.491L41.7903 313.432Z" fill="#1088C3"/>
<path id="6" d="M39.6882 323.959L40.063 321.994L69.4407 328.107L69.2533 329.09L39.6882 323.959Z" fill="#1088C3"/>
<path id="5" d="M32.9296 334.102L33.3989 331.139L67.8744 337.106L67.5616 339.081L32.9296 334.102Z" fill="#1088C3"/>
<path id="4" d="M36.4632 345.178L36.7139 343.193L66.4146 347.449L66.2893 348.442L36.4632 345.178Z" fill="#1088C3"/>
<path id="3" d="M35.3616 355.852L35.5498 353.861L65.3518 357.18L65.2577 358.176L35.3616 355.852Z" fill="#1088C3"/>
<path id="2" d="M34.5668 366.552L34.6924 364.556L64.5941 366.939L64.5313 367.937L34.5668 366.552Z" fill="#1088C3"/>
<path id="1" d="M34.1374 377.273L34.2002 375.274L64.1697 376.716L64.1383 377.715L34.1374 377.273Z" fill="#1088C3"/>
<path id="00" d="M24 389V385L64 386V388L24 389Z" fill="#1088C3"/>
</g>
<g id="text">
<path id="0" d="M13.3372 378.429V381.541C13.3372 382.891 13.1932 384.056 12.905 385.036C12.6169 386.007 12.2011 386.806 11.6577 387.432C11.1226 388.049 10.4846 388.506 9.7436 388.802C9.00264 389.099 8.17935 389.247 7.27374 389.247C6.54924 389.247 5.87415 389.156 5.24845 388.975C4.62275 388.786 4.0588 388.494 3.5566 388.099C3.06263 387.703 2.63452 387.205 2.27227 386.604C1.91826 385.995 1.64657 385.271 1.45722 384.431C1.26786 383.591 1.17318 382.628 1.17318 381.541V378.429C1.17318 377.079 1.31726 375.922 1.60541 374.959C1.90179 373.987 2.31755 373.193 2.85269 372.575C3.39606 371.958 4.03822 371.505 4.77918 371.217C5.52014 370.921 6.34342 370.772 7.24904 370.772C7.97353 370.772 8.64451 370.867 9.26197 371.056C9.88767 371.238 10.4516 371.522 10.9538 371.909C11.456 372.296 11.8841 372.794 12.2382 373.403C12.5922 374.004 12.8639 374.724 13.0532 375.564C13.2426 376.395 13.3372 377.35 13.3372 378.429ZM9.76829 382.01V377.947C9.76829 377.297 9.73125 376.729 9.65715 376.243C9.59129 375.757 9.48838 375.346 9.34842 375.008C9.20846 374.662 9.03557 374.383 8.82975 374.168C8.62393 373.954 8.38929 373.798 8.12584 373.699C7.86239 373.6 7.57012 373.551 7.24904 373.551C6.84563 373.551 6.4875 373.629 6.17465 373.786C5.87003 373.942 5.6107 374.193 5.39664 374.539C5.18259 374.877 5.01793 375.329 4.90267 375.897C4.79564 376.457 4.74213 377.141 4.74213 377.947V382.01C4.74213 382.661 4.77506 383.233 4.84092 383.727C4.91502 384.221 5.02205 384.645 5.16201 384.999C5.3102 385.345 5.48309 385.629 5.68068 385.851C5.8865 386.065 6.12114 386.221 6.38459 386.32C6.65627 386.419 6.95265 386.468 7.27374 386.468C7.66891 386.468 8.01881 386.39 8.32343 386.234C8.63628 386.069 8.89973 385.814 9.11378 385.468C9.33607 385.114 9.50073 384.653 9.60775 384.085C9.71478 383.517 9.76829 382.825 9.76829 382.01Z" fill="#DEDEDE"/>
<path id="10_2" d="M10.9041 259.982V278H7.34754V264.082L3.07468 265.441V262.637L10.5213 259.982H10.9041ZM28.1013 267.429V270.541C28.1013 271.891 27.9572 273.056 27.669 274.036C27.3809 275.007 26.9651 275.806 26.4218 276.432C25.8866 277.049 25.2486 277.506 24.5076 277.802C23.7667 278.099 22.9434 278.247 22.0378 278.247C21.3133 278.247 20.6382 278.156 20.0125 277.975C19.3868 277.786 18.8228 277.494 18.3206 277.099C17.8267 276.703 17.3986 276.205 17.0363 275.604C16.6823 274.995 16.4106 274.271 16.2213 273.431C16.0319 272.591 15.9372 271.628 15.9372 270.541V267.429C15.9372 266.079 16.0813 264.922 16.3694 263.959C16.6658 262.987 17.0816 262.193 17.6167 261.575C18.1601 260.958 18.8023 260.505 19.5432 260.217C20.2842 259.921 21.1075 259.772 22.0131 259.772C22.7376 259.772 23.4085 259.867 24.026 260.056C24.6517 260.238 25.2157 260.522 25.7179 260.909C26.2201 261.296 26.6482 261.794 27.0022 262.403C27.3562 263.004 27.6279 263.724 27.8172 264.564C28.0066 265.395 28.1013 266.35 28.1013 267.429ZM24.5323 271.01V266.947C24.5323 266.297 24.4953 265.729 24.4212 265.243C24.3553 264.757 24.2524 264.346 24.1125 264.008C23.9725 263.662 23.7996 263.383 23.5938 263.168C23.388 262.954 23.1533 262.798 22.8899 262.699C22.6264 262.6 22.3342 262.551 22.0131 262.551C21.6097 262.551 21.2515 262.629 20.9387 262.786C20.6341 262.942 20.3747 263.193 20.1607 263.539C19.9466 263.877 19.782 264.329 19.6667 264.897C19.5597 265.457 19.5062 266.141 19.5062 266.947V271.01C19.5062 271.661 19.5391 272.233 19.605 272.727C19.6791 273.221 19.7861 273.645 19.926 273.999C20.0742 274.345 20.2471 274.629 20.4447 274.851C20.6505 275.065 20.8852 275.221 21.1486 275.32C21.4203 275.419 21.7167 275.468 22.0378 275.468C22.4329 275.468 22.7828 275.39 23.0875 275.234C23.4003 275.069 23.6638 274.814 23.8778 274.468C24.1001 274.114 24.2648 273.653 24.3718 273.085C24.4788 272.517 24.5323 271.825 24.5323 271.01Z" fill="#DEDEDE"/>
<path id="20_2" d="M66.5348 173.221V176H54.2349V173.629L60.0514 167.393C60.636 166.742 61.097 166.17 61.4346 165.676C61.7721 165.174 62.015 164.725 62.1632 164.33C62.3196 163.927 62.3978 163.544 62.3978 163.181C62.3978 162.638 62.3073 162.173 62.1261 161.786C61.945 161.391 61.6774 161.086 61.3234 160.872C60.9776 160.658 60.5495 160.551 60.0391 160.551C59.4957 160.551 59.0265 160.683 58.6313 160.946C58.2443 161.21 57.948 161.576 57.7421 162.045C57.5445 162.515 57.4457 163.046 57.4457 163.638H53.8768C53.8768 162.568 54.132 161.588 54.6425 160.699C55.1529 159.802 55.8733 159.09 56.8036 158.563C57.7339 158.028 58.8371 157.76 60.1132 157.76C61.3728 157.76 62.4349 157.966 63.2993 158.378C64.172 158.781 64.8306 159.365 65.2752 160.131C65.728 160.889 65.9544 161.794 65.9544 162.848C65.9544 163.441 65.8597 164.021 65.6704 164.589C65.481 165.149 65.2093 165.709 64.8553 166.269C64.5095 166.82 64.0897 167.38 63.5957 167.948C63.1017 168.516 62.5542 169.105 61.9532 169.714L58.8289 173.221H66.5348ZM80.1013 165.429V168.541C80.1013 169.891 79.9572 171.056 79.669 172.036C79.3809 173.007 78.9651 173.806 78.4218 174.432C77.8866 175.049 77.2486 175.506 76.5076 175.802C75.7667 176.099 74.9434 176.247 74.0378 176.247C73.3133 176.247 72.6382 176.156 72.0125 175.975C71.3868 175.786 70.8228 175.494 70.3206 175.099C69.8267 174.703 69.3986 174.205 69.0363 173.604C68.6823 172.995 68.4106 172.271 68.2213 171.431C68.0319 170.591 67.9372 169.628 67.9372 168.541V165.429C67.9372 164.079 68.0813 162.922 68.3694 161.959C68.6658 160.987 69.0816 160.193 69.6167 159.575C70.1601 158.958 70.8023 158.505 71.5432 158.217C72.2842 157.921 73.1075 157.772 74.0131 157.772C74.7376 157.772 75.4085 157.867 76.026 158.056C76.6517 158.238 77.2157 158.522 77.7179 158.909C78.2201 159.296 78.6482 159.794 79.0022 160.403C79.3562 161.004 79.6279 161.724 79.8172 162.564C80.0066 163.395 80.1013 164.35 80.1013 165.429ZM76.5323 169.01V164.947C76.5323 164.297 76.4953 163.729 76.4212 163.243C76.3553 162.757 76.2524 162.346 76.1125 162.008C75.9725 161.662 75.7996 161.383 75.5938 161.168C75.388 160.954 75.1533 160.798 74.8899 160.699C74.6264 160.6 74.3342 160.551 74.0131 160.551C73.6097 160.551 73.2515 160.629 72.9387 160.786C72.6341 160.942 72.3747 161.193 72.1607 161.539C71.9466 161.877 71.782 162.329 71.6667 162.897C71.5597 163.457 71.5062 164.141 71.5062 164.947V169.01C71.5062 169.661 71.5391 170.233 71.605 170.727C71.6791 171.221 71.7861 171.645 71.926 171.999C72.0742 172.345 72.2471 172.629 72.4447 172.851C72.6505 173.065 72.8852 173.221 73.1486 173.32C73.4203 173.419 73.7167 173.468 74.0378 173.468C74.4329 173.468 74.7828 173.39 75.0875 173.234C75.4003 173.069 75.6638 172.814 75.8778 172.468C76.1001 172.114 76.2648 171.653 76.3718 171.085C76.4788 170.517 76.5323 169.825 76.5323 169.01Z" fill="#DEDEDE"/>
<path id="30_2" d="M140.878 83.466H142.78C143.389 83.466 143.891 83.3631 144.286 83.1573C144.682 82.9433 144.974 82.6469 145.163 82.2682C145.361 81.8812 145.46 81.4325 145.46 80.9221C145.46 80.4611 145.369 80.0535 145.188 79.6995C145.015 79.3373 144.747 79.0574 144.385 78.8598C144.023 78.6539 143.566 78.551 143.014 78.551C142.578 78.551 142.175 78.6375 141.804 78.8104C141.434 78.9833 141.137 79.2261 140.915 79.539C140.693 79.8518 140.582 80.2305 140.582 80.6751H137.013C137.013 79.6872 137.276 78.8268 137.803 78.0941C138.338 77.3614 139.054 76.7892 139.952 76.3776C140.849 75.9659 141.837 75.7601 142.916 75.7601C144.134 75.7601 145.2 75.9577 146.114 76.3529C147.028 76.7398 147.74 77.312 148.251 78.0694C148.761 78.8268 149.016 79.7654 149.016 80.885C149.016 81.4531 148.884 82.0047 148.621 82.5399C148.358 83.0668 147.979 83.5443 147.485 83.9724C146.999 84.3922 146.406 84.7298 145.707 84.985C145.007 85.232 144.221 85.3555 143.348 85.3555H140.878V83.466ZM140.878 86.1705V84.3305H143.348C144.328 84.3305 145.188 84.4416 145.929 84.6639C146.67 84.8862 147.291 85.2073 147.794 85.6272C148.296 86.0388 148.674 86.5287 148.93 87.0967C149.185 87.6566 149.313 88.2782 149.313 88.9615C149.313 89.8012 149.152 90.5504 148.831 91.2091C148.51 91.8595 148.057 92.4111 147.472 92.8639C146.896 93.3167 146.221 93.6625 145.447 93.9012C144.673 94.1317 143.829 94.247 142.916 94.247C142.158 94.247 141.413 94.1441 140.68 93.9383C139.956 93.7242 139.297 93.4072 138.704 92.9874C138.12 92.5592 137.651 92.0241 137.297 91.3819C136.951 90.7316 136.778 89.9618 136.778 89.0726H140.347C140.347 89.5337 140.462 89.9453 140.693 90.3076C140.923 90.6698 141.24 90.9538 141.644 91.1597C142.055 91.3655 142.512 91.4684 143.014 91.4684C143.582 91.4684 144.068 91.3655 144.472 91.1597C144.883 90.9456 145.196 90.6492 145.41 90.2705C145.632 89.8836 145.744 89.4349 145.744 88.9244C145.744 88.2658 145.624 87.7389 145.385 87.3437C145.147 86.9403 144.805 86.6439 144.36 86.4546C143.916 86.2652 143.389 86.1705 142.78 86.1705H140.878ZM163.101 83.429V86.541C163.101 87.8912 162.957 89.0562 162.669 90.0359C162.381 91.0074 161.965 91.8059 161.422 92.4316C160.887 93.0491 160.249 93.506 159.508 93.8024C158.767 94.0988 157.943 94.247 157.038 94.247C156.313 94.247 155.638 94.1564 155.012 93.9753C154.387 93.7859 153.823 93.4937 153.321 93.0985C152.827 92.7033 152.399 92.2052 152.036 91.6042C151.682 90.995 151.411 90.2705 151.221 89.4308C151.032 88.591 150.937 87.6278 150.937 86.541V83.429C150.937 82.0788 151.081 80.9221 151.369 79.9588C151.666 78.9874 152.082 78.1929 152.617 77.5754C153.16 76.958 153.802 76.5052 154.543 76.217C155.284 75.9206 156.107 75.7724 157.013 75.7724C157.738 75.7724 158.409 75.8671 159.026 76.0565C159.652 76.2376 160.216 76.5216 160.718 76.9086C161.22 77.2955 161.648 77.7936 162.002 78.4028C162.356 79.0038 162.628 79.7242 162.817 80.564C163.007 81.3955 163.101 82.3505 163.101 83.429ZM159.532 87.0103V82.9474C159.532 82.297 159.495 81.7289 159.421 81.2432C159.355 80.7574 159.252 80.3458 159.112 80.0082C158.972 79.6625 158.8 79.3825 158.594 79.1685C158.388 78.9544 158.153 78.798 157.89 78.6992C157.626 78.6004 157.334 78.551 157.013 78.551C156.61 78.551 156.252 78.6292 155.939 78.7857C155.634 78.9421 155.375 79.1932 155.161 79.539C154.947 79.8765 154.782 80.3293 154.667 80.8974C154.56 81.4572 154.506 82.1406 154.506 82.9474V87.0103C154.506 87.6607 154.539 88.2329 154.605 88.7269C154.679 89.2208 154.786 89.6448 154.926 89.9988C155.074 90.3446 155.247 90.6286 155.445 90.8509C155.651 91.065 155.885 91.2214 156.149 91.3202C156.42 91.419 156.717 91.4684 157.038 91.4684C157.433 91.4684 157.783 91.3902 158.087 91.2338C158.4 91.0691 158.664 90.8139 158.878 90.4681C159.1 90.1141 159.265 89.653 159.372 89.085C159.479 88.5169 159.532 87.8254 159.532 87.0103Z" fill="#DEDEDE"/>
<path id="40_2" d="M254.831 36.282V39.0729H241.877L241.704 36.9118L249.2 25.0194H252.028L248.965 30.1444L245.236 36.282H254.831ZM252.794 25.0194V43H249.237V25.0194H252.794ZM268.101 32.429V35.541C268.101 36.8912 267.957 38.0562 267.669 39.0359C267.381 40.0074 266.965 40.8059 266.422 41.4316C265.887 42.0491 265.249 42.506 264.508 42.8024C263.767 43.0988 262.943 43.247 262.038 43.247C261.313 43.247 260.638 43.1564 260.012 42.9753C259.387 42.7859 258.823 42.4937 258.321 42.0985C257.827 41.7033 257.399 41.2052 257.036 40.6042C256.682 39.995 256.411 39.2705 256.221 38.4308C256.032 37.591 255.937 36.6278 255.937 35.541V32.429C255.937 31.0788 256.081 29.9221 256.369 28.9588C256.666 27.9874 257.082 27.1929 257.617 26.5754C258.16 25.958 258.802 25.5052 259.543 25.217C260.284 24.9206 261.107 24.7724 262.013 24.7724C262.738 24.7724 263.409 24.8671 264.026 25.0565C264.652 25.2376 265.216 25.5216 265.718 25.9086C266.22 26.2955 266.648 26.7936 267.002 27.4028C267.356 28.0038 267.628 28.7242 267.817 29.564C268.007 30.3955 268.101 31.3505 268.101 32.429ZM264.532 36.0103V31.9474C264.532 31.297 264.495 30.7289 264.421 30.2432C264.355 29.7574 264.252 29.3458 264.112 29.0082C263.972 28.6625 263.8 28.3825 263.594 28.1685C263.388 27.9544 263.153 27.798 262.89 27.6992C262.626 27.6004 262.334 27.551 262.013 27.551C261.61 27.551 261.252 27.6292 260.939 27.7857C260.634 27.9421 260.375 28.1932 260.161 28.539C259.947 28.8765 259.782 29.3293 259.667 29.8974C259.56 30.4572 259.506 31.1406 259.506 31.9474V36.0103C259.506 36.6607 259.539 37.2329 259.605 37.7269C259.679 38.2208 259.786 38.6448 259.926 38.9988C260.074 39.3446 260.247 39.6286 260.445 39.8509C260.651 40.065 260.885 40.2214 261.149 40.3202C261.42 40.419 261.717 40.4684 262.038 40.4684C262.433 40.4684 262.783 40.3902 263.087 40.2338C263.4 40.0691 263.664 39.8139 263.878 39.4681C264.1 39.1141 264.265 38.653 264.372 38.085C264.479 37.5169 264.532 36.8254 264.532 36.0103Z" fill="#DEDEDE"/>
<path id="50_2" d="M367.582 15.8124L364.741 15.1332L365.766 6.01942H375.868V8.89681H368.693L368.248 12.8856C368.487 12.7457 368.849 12.5975 369.335 12.4411C369.821 12.2764 370.364 12.1941 370.965 12.1941C371.838 12.1941 372.612 12.3299 373.287 12.6016C373.962 12.8733 374.534 13.2685 375.004 13.7871C375.481 14.3058 375.843 14.9397 376.09 15.6889C376.337 16.4381 376.461 17.2861 376.461 18.2329C376.461 19.0315 376.337 19.793 376.09 20.5175C375.843 21.2338 375.469 21.8759 374.966 22.444C374.464 23.0038 373.834 23.4443 373.077 23.7654C372.32 24.0864 371.422 24.247 370.385 24.247C369.611 24.247 368.862 24.1317 368.137 23.9012C367.421 23.6707 366.775 23.329 366.198 22.8762C365.63 22.4234 365.173 21.8759 364.828 21.2338C364.49 20.5834 364.313 19.8424 364.297 19.0109H367.829C367.878 19.5213 368.01 19.9618 368.224 20.3323C368.446 20.6945 368.738 20.9744 369.101 21.172C369.463 21.3696 369.887 21.4684 370.373 21.4684C370.825 21.4684 371.212 21.3819 371.533 21.2091C371.854 21.0362 372.114 20.7974 372.311 20.4928C372.509 20.18 372.653 19.8177 372.744 19.4061C372.842 18.9862 372.892 18.5334 372.892 18.0476C372.892 17.5619 372.834 17.1214 372.719 16.7263C372.604 16.3311 372.427 15.9894 372.188 15.7013C371.949 15.4131 371.645 15.1908 371.274 15.0344C370.912 14.878 370.488 14.7998 370.002 14.7998C369.343 14.7998 368.833 14.9027 368.471 15.1085C368.117 15.3143 367.82 15.549 367.582 15.8124ZM390.101 13.429V16.541C390.101 17.8912 389.957 19.0562 389.669 20.0359C389.381 21.0074 388.965 21.8059 388.422 22.4316C387.887 23.0491 387.249 23.506 386.508 23.8024C385.767 24.0988 384.943 24.247 384.038 24.247C383.313 24.247 382.638 24.1564 382.012 23.9753C381.387 23.7859 380.823 23.4937 380.321 23.0985C379.827 22.7033 379.399 22.2052 379.036 21.6042C378.682 20.995 378.411 20.2705 378.221 19.4308C378.032 18.591 377.937 17.6278 377.937 16.541V13.429C377.937 12.0788 378.081 10.9221 378.369 9.95885C378.666 8.98737 379.082 8.1929 379.617 7.57543C380.16 6.95797 380.802 6.50516 381.543 6.21701C382.284 5.92063 383.107 5.77244 384.013 5.77244C384.738 5.77244 385.409 5.86712 386.026 6.05647C386.652 6.23759 387.216 6.52163 387.718 6.90857C388.22 7.29552 388.648 7.79361 389.002 8.40284C389.356 9.00384 389.628 9.72421 389.817 10.564C390.007 11.3955 390.101 12.3505 390.101 13.429ZM386.532 17.0103V12.9474C386.532 12.297 386.495 11.7289 386.421 11.2432C386.355 10.7574 386.252 10.3458 386.112 10.0082C385.972 9.66247 385.8 9.38255 385.594 9.16849C385.388 8.95444 385.153 8.79802 384.89 8.69922C384.626 8.60043 384.334 8.55103 384.013 8.55103C383.61 8.55103 383.252 8.62924 382.939 8.78567C382.634 8.94209 382.375 9.19319 382.161 9.53897C381.947 9.87652 381.782 10.3293 381.667 10.8974C381.56 11.4572 381.506 12.1406 381.506 12.9474V17.0103C381.506 17.6607 381.539 18.2329 381.605 18.7269C381.679 19.2208 381.786 19.6448 381.926 19.9988C382.074 20.3446 382.247 20.6286 382.445 20.8509C382.651 21.065 382.885 21.2214 383.149 21.3202C383.42 21.419 383.717 21.4684 384.038 21.4684C384.433 21.4684 384.783 21.3902 385.087 21.2338C385.4 21.0691 385.664 20.8139 385.878 20.4681C386.1 20.1141 386.265 19.653 386.372 19.085C386.479 18.5169 386.532 17.8254 386.532 17.0103Z" fill="#DEDEDE"/>
<path id="60_2" d="M498.41 24.8342H498.929V27.6745H498.719C497.781 27.6745 496.945 27.8145 496.212 28.0944C495.48 28.3743 494.858 28.7736 494.348 29.2923C493.845 29.8027 493.458 30.4202 493.187 31.1447C492.923 31.8692 492.792 32.6801 492.792 33.5775V36.566C492.792 37.2082 492.853 37.7762 492.977 38.2702C493.108 38.756 493.294 39.1635 493.532 39.4928C493.779 39.8139 494.068 40.0568 494.397 40.2214C494.726 40.3778 495.097 40.456 495.508 40.456C495.895 40.456 496.245 40.3737 496.558 40.2091C496.879 40.0444 497.151 39.8139 497.373 39.5175C497.604 39.2129 497.777 38.8589 497.892 38.4555C498.015 38.0438 498.077 37.5951 498.077 37.1094C498.077 36.6236 498.015 36.175 497.892 35.7633C497.777 35.3517 497.604 34.9977 497.373 34.7013C497.143 34.3967 496.863 34.162 496.533 33.9974C496.204 33.8327 495.834 33.7504 495.422 33.7504C494.862 33.7504 494.368 33.8821 493.94 34.1456C493.52 34.4008 493.191 34.7301 492.952 35.1335C492.713 35.5369 492.586 35.9609 492.569 36.4055L491.495 35.7139C491.52 35.08 491.651 34.479 491.89 33.9109C492.137 33.3428 492.475 32.8406 492.903 32.4043C493.339 31.9597 493.862 31.6139 494.471 31.367C495.08 31.1117 495.768 30.9841 496.533 30.9841C497.373 30.9841 498.11 31.1447 498.744 31.4658C499.386 31.7868 499.921 32.2273 500.349 32.7871C500.777 33.347 501.098 33.9932 501.313 34.726C501.527 35.4587 501.634 36.2408 501.634 37.0723C501.634 37.945 501.49 38.756 501.201 39.5051C500.921 40.2543 500.514 40.9089 499.979 41.4687C499.452 42.0285 498.818 42.4649 498.077 42.7777C497.336 43.0906 496.505 43.247 495.582 43.247C494.627 43.247 493.759 43.0741 492.977 42.7283C492.203 42.3743 491.536 41.8803 490.976 41.2464C490.416 40.6125 489.984 39.8592 489.68 38.9865C489.383 38.1138 489.235 37.1588 489.235 36.1214V34.7383C489.235 33.2893 489.445 31.9638 489.865 30.7618C490.293 29.5516 490.906 28.506 491.705 27.6251C492.503 26.736 493.467 26.0485 494.595 25.5628C495.722 25.0771 496.994 24.8342 498.41 24.8342ZM515.101 32.429V35.541C515.101 36.8912 514.957 38.0562 514.669 39.0359C514.381 40.0074 513.965 40.8059 513.422 41.4316C512.887 42.0491 512.249 42.506 511.508 42.8024C510.767 43.0988 509.943 43.247 509.038 43.247C508.313 43.247 507.638 43.1564 507.012 42.9753C506.387 42.7859 505.823 42.4937 505.321 42.0985C504.827 41.7033 504.399 41.2052 504.036 40.6042C503.682 39.995 503.411 39.2705 503.221 38.4308C503.032 37.591 502.937 36.6278 502.937 35.541V32.429C502.937 31.0788 503.081 29.9221 503.369 28.9588C503.666 27.9874 504.082 27.1929 504.617 26.5754C505.16 25.958 505.802 25.5052 506.543 25.217C507.284 24.9206 508.107 24.7724 509.013 24.7724C509.738 24.7724 510.409 24.8671 511.026 25.0565C511.652 25.2376 512.216 25.5216 512.718 25.9086C513.22 26.2955 513.648 26.7936 514.002 27.4028C514.356 28.0038 514.628 28.7242 514.817 29.564C515.007 30.3955 515.101 31.3505 515.101 32.429ZM511.532 36.0103V31.9474C511.532 31.297 511.495 30.7289 511.421 30.2432C511.355 29.7574 511.252 29.3458 511.112 29.0082C510.972 28.6625 510.8 28.3825 510.594 28.1685C510.388 27.9544 510.153 27.798 509.89 27.6992C509.626 27.6004 509.334 27.551 509.013 27.551C508.61 27.551 508.252 27.6292 507.939 27.7857C507.634 27.9421 507.375 28.1932 507.161 28.539C506.947 28.8765 506.782 29.3293 506.667 29.8974C506.56 30.4572 506.506 31.1406 506.506 31.9474V36.0103C506.506 36.6607 506.539 37.2329 506.605 37.7269C506.679 38.2208 506.786 38.6448 506.926 38.9988C507.074 39.3446 507.247 39.6286 507.445 39.8509C507.651 40.065 507.885 40.2214 508.149 40.3202C508.42 40.419 508.717 40.4684 509.038 40.4684C509.433 40.4684 509.783 40.3902 510.087 40.2338C510.4 40.0691 510.664 39.8139 510.878 39.4681C511.1 39.1141 511.265 38.653 511.372 38.085C511.479 37.5169 511.532 36.8254 511.532 36.0103Z" fill="#DEDEDE"/>
<path id="70_2" d="M602.448 76.0194V77.9336L595.496 94H591.742L598.694 78.798H589.741V76.0194H602.448ZM616.101 83.429V86.541C616.101 87.8912 615.957 89.0562 615.669 90.0359C615.381 91.0074 614.965 91.8059 614.422 92.4316C613.887 93.0491 613.249 93.506 612.508 93.8024C611.767 94.0988 610.943 94.247 610.038 94.247C609.313 94.247 608.638 94.1564 608.012 93.9753C607.387 93.7859 606.823 93.4937 606.321 93.0985C605.827 92.7033 605.399 92.2052 605.036 91.6042C604.682 90.995 604.411 90.2705 604.221 89.4308C604.032 88.591 603.937 87.6278 603.937 86.541V83.429C603.937 82.0788 604.081 80.9221 604.369 79.9588C604.666 78.9874 605.082 78.1929 605.617 77.5754C606.16 76.958 606.802 76.5052 607.543 76.217C608.284 75.9206 609.107 75.7724 610.013 75.7724C610.738 75.7724 611.409 75.8671 612.026 76.0565C612.652 76.2376 613.216 76.5216 613.718 76.9086C614.22 77.2955 614.648 77.7936 615.002 78.4028C615.356 79.0038 615.628 79.7242 615.817 80.564C616.007 81.3955 616.101 82.3505 616.101 83.429ZM612.532 87.0103V82.9474C612.532 82.297 612.495 81.7289 612.421 81.2432C612.355 80.7574 612.252 80.3458 612.112 80.0082C611.972 79.6625 611.8 79.3825 611.594 79.1685C611.388 78.9544 611.153 78.798 610.89 78.6992C610.626 78.6004 610.334 78.551 610.013 78.551C609.61 78.551 609.252 78.6292 608.939 78.7857C608.634 78.9421 608.375 79.1932 608.161 79.539C607.947 79.8765 607.782 80.3293 607.667 80.8974C607.56 81.4572 607.506 82.1406 607.506 82.9474V87.0103C607.506 87.6607 607.539 88.2329 607.605 88.7269C607.679 89.2208 607.786 89.6448 607.926 89.9988C608.074 90.3446 608.247 90.6286 608.445 90.8509C608.651 91.065 608.885 91.2214 609.149 91.3202C609.42 91.419 609.717 91.4684 610.038 91.4684C610.433 91.4684 610.783 91.3902 611.087 91.2338C611.4 91.0691 611.664 90.8139 611.878 90.4681C612.1 90.1141 612.265 89.653 612.372 89.085C612.479 88.5169 612.532 87.8254 612.532 87.0103Z" fill="#DEDEDE"/>
<path id="80_2" d="M682.35 171.073C682.35 172.201 682.086 173.151 681.559 173.925C681.032 174.691 680.308 175.271 679.386 175.667C678.472 176.054 677.435 176.247 676.274 176.247C675.113 176.247 674.071 176.054 673.149 175.667C672.227 175.271 671.499 174.691 670.964 173.925C670.428 173.151 670.161 172.201 670.161 171.073C670.161 170.315 670.313 169.632 670.618 169.023C670.922 168.405 671.346 167.878 671.89 167.442C672.441 166.997 673.088 166.66 673.829 166.429C674.57 166.191 675.376 166.071 676.249 166.071C677.418 166.071 678.464 166.277 679.386 166.689C680.308 167.1 681.032 167.681 681.559 168.43C682.086 169.179 682.35 170.06 682.35 171.073ZM678.768 170.838C678.768 170.286 678.661 169.813 678.447 169.418C678.241 169.014 677.949 168.706 677.57 168.492C677.192 168.278 676.751 168.171 676.249 168.171C675.747 168.171 675.306 168.278 674.928 168.492C674.549 168.706 674.253 169.014 674.039 169.418C673.833 169.813 673.73 170.286 673.73 170.838C673.73 171.381 673.833 171.851 674.039 172.246C674.253 172.641 674.549 172.946 674.928 173.16C675.315 173.365 675.763 173.468 676.274 173.468C676.784 173.468 677.225 173.365 677.595 173.16C677.974 172.946 678.262 172.641 678.46 172.246C678.665 171.851 678.768 171.381 678.768 170.838ZM681.967 162.786C681.967 163.7 681.724 164.511 681.238 165.219C680.752 165.919 680.077 166.466 679.213 166.862C678.357 167.257 677.377 167.454 676.274 167.454C675.162 167.454 674.174 167.257 673.31 166.862C672.445 166.466 671.77 165.919 671.285 165.219C670.799 164.511 670.556 163.7 670.556 162.786C670.556 161.7 670.799 160.786 671.285 160.045C671.779 159.296 672.454 158.727 673.31 158.341C674.174 157.954 675.154 157.76 676.249 157.76C677.36 157.76 678.344 157.954 679.201 158.341C680.065 158.727 680.74 159.296 681.226 160.045C681.72 160.786 681.967 161.7 681.967 162.786ZM678.41 162.947C678.41 162.461 678.324 162.041 678.151 161.687C677.978 161.325 677.731 161.045 677.41 160.847C677.097 160.65 676.71 160.551 676.249 160.551C675.804 160.551 675.422 160.646 675.101 160.835C674.788 161.024 674.545 161.3 674.372 161.662C674.207 162.016 674.125 162.445 674.125 162.947C674.125 163.433 674.207 163.861 674.372 164.231C674.545 164.593 674.792 164.877 675.113 165.083C675.434 165.289 675.821 165.392 676.274 165.392C676.727 165.392 677.109 165.289 677.422 165.083C677.743 164.877 677.986 164.593 678.151 164.231C678.324 163.861 678.41 163.433 678.41 162.947ZM696.101 165.429V168.541C696.101 169.891 695.957 171.056 695.669 172.036C695.381 173.007 694.965 173.806 694.422 174.432C693.887 175.049 693.249 175.506 692.508 175.802C691.767 176.099 690.943 176.247 690.038 176.247C689.313 176.247 688.638 176.156 688.012 175.975C687.387 175.786 686.823 175.494 686.321 175.099C685.827 174.703 685.399 174.205 685.036 173.604C684.682 172.995 684.411 172.271 684.221 171.431C684.032 170.591 683.937 169.628 683.937 168.541V165.429C683.937 164.079 684.081 162.922 684.369 161.959C684.666 160.987 685.082 160.193 685.617 159.575C686.16 158.958 686.802 158.505 687.543 158.217C688.284 157.921 689.107 157.772 690.013 157.772C690.738 157.772 691.409 157.867 692.026 158.056C692.652 158.238 693.216 158.522 693.718 158.909C694.22 159.296 694.648 159.794 695.002 160.403C695.356 161.004 695.628 161.724 695.817 162.564C696.007 163.395 696.101 164.35 696.101 165.429ZM692.532 169.01V164.947C692.532 164.297 692.495 163.729 692.421 163.243C692.355 162.757 692.252 162.346 692.112 162.008C691.972 161.662 691.8 161.383 691.594 161.168C691.388 160.954 691.153 160.798 690.89 160.699C690.626 160.6 690.334 160.551 690.013 160.551C689.61 160.551 689.252 160.629 688.939 160.786C688.634 160.942 688.375 161.193 688.161 161.539C687.947 161.877 687.782 162.329 687.667 162.897C687.56 163.457 687.506 164.141 687.506 164.947V169.01C687.506 169.661 687.539 170.233 687.605 170.727C687.679 171.221 687.786 171.645 687.926 171.999C688.074 172.345 688.247 172.629 688.445 172.851C688.651 173.065 688.885 173.221 689.149 173.32C689.42 173.419 689.717 173.468 690.038 173.468C690.433 173.468 690.783 173.39 691.087 173.234C691.4 173.069 691.664 172.814 691.878 172.468C692.1 172.114 692.265 171.653 692.372 171.085C692.479 170.517 692.532 169.825 692.532 169.01Z" fill="#DEDEDE"/>
<path id="90_2" d="M725.754 276.296H725.989C726.977 276.296 727.825 276.176 728.533 275.937C729.249 275.69 729.838 275.336 730.299 274.875C730.76 274.414 731.101 273.85 731.324 273.183C731.546 272.508 731.657 271.743 731.657 270.887V267.478C731.657 266.828 731.591 266.256 731.46 265.762C731.336 265.268 731.155 264.86 730.916 264.539C730.686 264.21 730.414 263.963 730.101 263.798C729.797 263.633 729.459 263.551 729.088 263.551C728.693 263.551 728.343 263.65 728.039 263.847C727.734 264.037 727.475 264.296 727.261 264.625C727.055 264.955 726.894 265.333 726.779 265.762C726.672 266.181 726.619 266.622 726.619 267.083C726.619 267.544 726.672 267.984 726.779 268.404C726.886 268.816 727.047 269.182 727.261 269.503C727.475 269.816 727.742 270.067 728.064 270.257C728.385 270.438 728.763 270.528 729.2 270.528C729.62 270.528 729.994 270.45 730.323 270.294C730.661 270.129 730.945 269.915 731.176 269.652C731.414 269.388 731.595 269.096 731.719 268.775C731.851 268.454 731.916 268.129 731.916 267.799L733.09 268.441C733.09 269.018 732.966 269.586 732.719 270.146C732.472 270.705 732.126 271.216 731.682 271.677C731.246 272.13 730.739 272.492 730.163 272.764C729.587 273.035 728.969 273.171 728.31 273.171C727.471 273.171 726.726 273.019 726.075 272.714C725.425 272.401 724.873 271.973 724.42 271.43C723.976 270.878 723.638 270.236 723.408 269.503C723.177 268.771 723.062 267.976 723.062 267.12C723.062 266.247 723.202 265.428 723.482 264.662C723.77 263.897 724.178 263.222 724.704 262.637C725.24 262.053 725.878 261.596 726.619 261.266C727.368 260.929 728.199 260.76 729.113 260.76C730.027 260.76 730.859 260.937 731.608 261.291C732.357 261.645 732.999 262.147 733.534 262.798C734.069 263.44 734.481 264.21 734.769 265.107C735.066 266.004 735.214 267.001 735.214 268.096V269.331C735.214 270.5 735.086 271.586 734.831 272.591C734.584 273.595 734.209 274.505 733.707 275.32C733.213 276.127 732.596 276.818 731.855 277.395C731.122 277.971 730.27 278.411 729.298 278.716C728.327 279.021 727.24 279.173 726.038 279.173H725.754V276.296ZM749.101 268.429V271.541C749.101 272.891 748.957 274.056 748.669 275.036C748.381 276.007 747.965 276.806 747.422 277.432C746.887 278.049 746.249 278.506 745.508 278.802C744.767 279.099 743.943 279.247 743.038 279.247C742.313 279.247 741.638 279.156 741.012 278.975C740.387 278.786 739.823 278.494 739.321 278.099C738.827 277.703 738.399 277.205 738.036 276.604C737.682 275.995 737.411 275.271 737.221 274.431C737.032 273.591 736.937 272.628 736.937 271.541V268.429C736.937 267.079 737.081 265.922 737.369 264.959C737.666 263.987 738.082 263.193 738.617 262.575C739.16 261.958 739.802 261.505 740.543 261.217C741.284 260.921 742.107 260.772 743.013 260.772C743.738 260.772 744.409 260.867 745.026 261.056C745.652 261.238 746.216 261.522 746.718 261.909C747.22 262.296 747.648 262.794 748.002 263.403C748.356 264.004 748.628 264.724 748.817 265.564C749.007 266.395 749.101 267.35 749.101 268.429ZM745.532 272.01V267.947C745.532 267.297 745.495 266.729 745.421 266.243C745.355 265.757 745.252 265.346 745.112 265.008C744.972 264.662 744.8 264.383 744.594 264.168C744.388 263.954 744.153 263.798 743.89 263.699C743.626 263.6 743.334 263.551 743.013 263.551C742.61 263.551 742.252 263.629 741.939 263.786C741.634 263.942 741.375 264.193 741.161 264.539C740.947 264.877 740.782 265.329 740.667 265.897C740.56 266.457 740.506 267.141 740.506 267.947V272.01C740.506 272.661 740.539 273.233 740.605 273.727C740.679 274.221 740.786 274.645 740.926 274.999C741.074 275.345 741.247 275.629 741.445 275.851C741.651 276.065 741.885 276.221 742.149 276.32C742.42 276.419 742.717 276.468 743.038 276.468C743.433 276.468 743.783 276.39 744.087 276.234C744.4 276.069 744.664 275.814 744.878 275.468C745.1 275.114 745.265 274.653 745.372 274.085C745.479 273.517 745.532 272.825 745.532 272.01Z" fill="#DEDEDE"/>
<path id="100_2" d="M746.904 371.982V390H743.348V376.082L739.075 377.441V374.637L746.521 371.982H746.904ZM764.101 379.429V382.541C764.101 383.891 763.957 385.056 763.669 386.036C763.381 387.007 762.965 387.806 762.422 388.432C761.887 389.049 761.249 389.506 760.508 389.802C759.767 390.099 758.943 390.247 758.038 390.247C757.313 390.247 756.638 390.156 756.012 389.975C755.387 389.786 754.823 389.494 754.321 389.099C753.827 388.703 753.399 388.205 753.036 387.604C752.682 386.995 752.411 386.271 752.221 385.431C752.032 384.591 751.937 383.628 751.937 382.541V379.429C751.937 378.079 752.081 376.922 752.369 375.959C752.666 374.987 753.082 374.193 753.617 373.575C754.16 372.958 754.802 372.505 755.543 372.217C756.284 371.921 757.107 371.772 758.013 371.772C758.738 371.772 759.409 371.867 760.026 372.056C760.652 372.238 761.216 372.522 761.718 372.909C762.22 373.296 762.648 373.794 763.002 374.403C763.356 375.004 763.628 375.724 763.817 376.564C764.007 377.395 764.101 378.35 764.101 379.429ZM760.532 383.01V378.947C760.532 378.297 760.495 377.729 760.421 377.243C760.355 376.757 760.252 376.346 760.112 376.008C759.972 375.662 759.8 375.383 759.594 375.168C759.388 374.954 759.153 374.798 758.89 374.699C758.626 374.6 758.334 374.551 758.013 374.551C757.61 374.551 757.252 374.629 756.939 374.786C756.634 374.942 756.375 375.193 756.161 375.539C755.947 375.877 755.782 376.329 755.667 376.897C755.56 377.457 755.506 378.141 755.506 378.947V383.01C755.506 383.661 755.539 384.233 755.605 384.727C755.679 385.221 755.786 385.645 755.926 385.999C756.074 386.345 756.247 386.629 756.445 386.851C756.651 387.065 756.885 387.221 757.149 387.32C757.42 387.419 757.717 387.468 758.038 387.468C758.433 387.468 758.783 387.39 759.087 387.234C759.4 387.069 759.664 386.814 759.878 386.468C760.1 386.114 760.265 385.653 760.372 385.085C760.479 384.517 760.532 383.825 760.532 383.01ZM777.865 379.429V382.541C777.865 383.891 777.721 385.056 777.433 386.036C777.145 387.007 776.729 387.806 776.186 388.432C775.651 389.049 775.013 389.506 774.272 389.802C773.531 390.099 772.707 390.247 771.802 390.247C771.077 390.247 770.402 390.156 769.777 389.975C769.151 389.786 768.587 389.494 768.085 389.099C767.591 388.703 767.163 388.205 766.8 387.604C766.446 386.995 766.175 386.271 765.985 385.431C765.796 384.591 765.701 383.628 765.701 382.541V379.429C765.701 378.079 765.845 376.922 766.133 375.959C766.43 374.987 766.846 374.193 767.381 373.575C767.924 372.958 768.566 372.505 769.307 372.217C770.048 371.921 770.871 371.772 771.777 371.772C772.502 371.772 773.173 371.867 773.79 372.056C774.416 372.238 774.98 372.522 775.482 372.909C775.984 373.296 776.412 373.794 776.766 374.403C777.12 375.004 777.392 375.724 777.581 376.564C777.771 377.395 777.865 378.35 777.865 379.429ZM774.296 383.01V378.947C774.296 378.297 774.259 377.729 774.185 377.243C774.119 376.757 774.016 376.346 773.876 376.008C773.737 375.662 773.564 375.383 773.358 375.168C773.152 374.954 772.917 374.798 772.654 374.699C772.39 374.6 772.098 374.551 771.777 374.551C771.374 374.551 771.016 374.629 770.703 374.786C770.398 374.942 770.139 375.193 769.925 375.539C769.711 375.877 769.546 376.329 769.431 376.897C769.324 377.457 769.27 378.141 769.27 378.947V383.01C769.27 383.661 769.303 384.233 769.369 384.727C769.443 385.221 769.55 385.645 769.69 385.999C769.838 386.345 770.011 386.629 770.209 386.851C770.415 387.065 770.649 387.221 770.913 387.32C771.184 387.419 771.481 387.468 771.802 387.468C772.197 387.468 772.547 387.39 772.851 387.234C773.164 387.069 773.428 386.814 773.642 386.468C773.864 386.114 774.029 385.653 774.136 385.085C774.243 384.517 774.296 383.825 774.296 383.01Z" fill="#DEDEDE"/>
</g>
<g id="needle">
<rect id="Rectangle 11" x="33.5" y="347.5" width="689" height="79" stroke="black"/>
<g id="base">
<circle id="Ellipse 79" cx="378" cy="387" r="38" fill="url(#paint0_linear_111_1827)"/>
<circle id="Ellipse 80" cx="378" cy="387" r="32" fill="black"/>
</g>
<g id="shadow">
<path fill-rule="evenodd" clip-rule="evenodd" d="M400.25 375.59C429.82 374.625 448.966 374 448.966 374V400C448.966 400 429.82 399.374 400.251 398.409C396.104 406.479 387.697 412 378 412C367.723 412 358.894 405.799 355.052 396.934C246.088 393.379 81.0596 388 79.9836 388C78.3765 387.999 78.3766 386 79.9836 386C81.0595 386 246.088 380.621 355.052 377.065C358.895 368.201 367.723 362 378 362C387.697 362 396.104 367.521 400.25 375.59Z" fill="url(#paint1_linear_111_1827)"/>
<path fill-rule="evenodd" clip-rule="evenodd" d="M400.25 375.59C429.82 374.625 448.966 374 448.966 374V400C448.966 400 429.82 399.374 400.251 398.409C396.104 406.479 387.697 412 378 412C367.723 412 358.894 405.799 355.052 396.934C246.088 393.379 81.0596 388 79.9836 388C78.3765 387.999 78.3766 386 79.9836 386C81.0595 386 246.088 380.621 355.052 377.065C358.895 368.201 367.723 362 378 362C387.697 362 396.104 367.521 400.25 375.59Z" fill="url(#paint2_linear_111_1827)" fill-opacity="0.2"/>
</g>
<path id="Union" fill-rule="evenodd" clip-rule="evenodd" d="M398.793 377.156L400.989 378.469L445.987 376.91L446.013 396.91L401.01 394.969L398.865 396.69C395.212 404.541 387.26 409.987 378.03 410C368.125 410.013 359.673 403.762 356.424 394.985L354.509 394.031L141.999 386.812L354.491 380.031L356.403 379.071C359.629 370.286 368.064 364.013 377.969 364C387.16 363.988 395.099 369.368 398.793 377.156Z" fill="#0080BF"/>
</g>
</g>
<defs>
<linearGradient id="paint0_linear_111_1827" x1="373.979" y1="424.794" x2="382.027" y2="349.213" gradientUnits="userSpaceOnUse">
<stop stop-color="#84BBD6"/>
<stop offset="0.0001" stop-color="#84C7D6"/>
<stop offset="0.1811" stop-color="#86C4E3"/>
<stop offset="0.3879" stop-color="#88CCEE"/>
<stop offset="0.5442" stop-color="#AEDFF7"/>
<stop offset="0.6848" stop-color="#CCEEFF"/>
<stop offset="0.84375" stop-color="#CCEEFF"/>
</linearGradient>
<linearGradient id="paint1_linear_111_1827" x1="576.749" y1="362" x2="576.749" y2="412" gradientUnits="userSpaceOnUse">
<stop stop-color="#52ADDB"/>
<stop offset="1" stop-color="#11435C"/>
</linearGradient>
<linearGradient id="paint2_linear_111_1827" x1="576.052" y1="362" x2="576.052" y2="412" gradientUnits="userSpaceOnUse">
<stop offset="0.171875" stop-color="#2286B8"/>
<stop offset="0.828125" stop-color="#196287"/>
</linearGradient>
</defs>
</svg>
