<svg width="1440" height="235" viewBox="0 0 1440 235" fill="none" xmlns="http://www.w3.org/2000/svg">
<path opacity="0.1" d="M-56 161.416C-56 118.954 -23.2657 83.6713 19.0773 80.4939L133.321 71.9213C159.888 69.9277 186.589 73.1412 211.925 81.3814L256.051 95.7333C323.552 117.687 395.484 122.344 465.251 109.276L943.97 19.6101C1012.7 6.7367 1083.55 11.0615 1150.2 32.1993L1297.8 79.0078C1312.68 83.7263 1328.2 86.1277 1343.81 86.1277H1413.31C1459.44 86.1277 1496.75 123.688 1496.45 169.82C1496.14 215.752 1458.65 252.736 1412.72 252.41L24.5739 242.564C-20.018 242.247 -56 206.009 -56 161.416Z" fill="#1088C3"/>
<path d="M-56 185.416C-56 142.954 -23.2657 107.671 19.0773 104.494L133.321 95.9213C159.888 93.9277 186.589 97.1412 211.924 105.381L265.028 122.653C326.638 142.691 392.293 146.941 455.972 135.014L953.107 41.8988C1015.84 30.1488 1080.5 34.0962 1141.34 53.3895L1297.8 103.008C1312.68 107.726 1328.2 110.128 1343.81 110.128H1413.31C1459.44 110.128 1496.75 147.688 1496.45 193.82V193.82C1496.14 239.752 1458.65 276.736 1412.72 276.41L24.5739 266.564C-20.018 266.247 -56 230.009 -56 185.416V185.416Z" fill="#1088C3"/>
</svg>
